Coordinates
version=1
nRows=11
nColumns=42
inDegrees=yes

Units are S.I. units (second, meters, Newtons, ...)
If the header above contains a line with 'inDegrees', this indicates whether rotational values are in degrees (yes) or radians (no).

endheader
time	pelvis_tilt	pelvis_list	pelvis_rotation	pelvis_tx	pelvis_ty	pelvis_tz	hip_flexion_r	hip_adduction_r	hip_rotation_r	knee_angle_r	knee_adduction_r	knee_angle_r_beta	ankle_angle_r	subtalar_angle_r	mtp_angle_r	hip_flexion_l	hip_adduction_l	hip_rotation_l	knee_angle_l	knee_adduction_l	knee_angle_l_beta	ankle_angle_l	subtalar_angle_l	mtp_angle_l	lumbar_extension	lumbar_bending	lumbar_rotation	arm_flex_r	arm_add_r	arm_rot_r	elbow_flex_r	pro_sup_r	wrist_flex_r	wrist_dev_r	arm_flex_l	arm_add_l	arm_rot_l	elbow_flex_l	pro_sup_l	wrist_flex_l	wrist_dev_l
      2.96000000	     14.35195993	     -2.93508267	      2.02599851	      1.74788032	      0.88371667	     -0.27897512	     -8.84862695	      8.89454034	     -7.14637180	     17.29505453	     -5.82159528	      0.30185565	     15.34263668	     10.50471708	     -7.50000795	     -3.63849484	     -6.44119318	    -12.24717847	     68.70014748	     -6.62610871	      1.19904377	      5.23738090	    -14.87494075	     -7.50000795	    -27.75101448	      0.91739686	     -1.30407549	     -1.17809239	     -1.68368070	    -22.08784931	     42.41844889	     90.00000001	      0.00000000	      0.00000000	      1.58179009	     -5.51879493	     -7.31968988	     46.56803517	     90.00000001	      0.00000000	      0.00000000
      2.97000000	     14.37768486	     -2.58575904	      1.93623176	      1.75848836	      0.88455319	     -0.27919223	    -10.08905752	      8.50702275	     -7.20326947	     16.40152265	     -5.77979794	      0.28626057	     15.57341083	     11.10399962	     -7.50000776	     -2.02550625	     -6.05557939	    -12.26637889	     68.70347159	     -6.71066078	      1.19910179	      6.56265830	    -15.19715713	     -7.50000776	    -27.78316681	      0.51683547	     -1.09582640	     -0.90943402	     -1.70669386	    -21.70055342	     43.18409636	     90.00000001	      0.00000000	      0.00000000	      1.32586601	     -5.56823595	     -7.46456751	     46.39513911	     90.00000001	      0.00000000	      0.00000000
      2.98000000	     14.40368294	     -2.25233025	      1.88468880	      1.76913321	      0.88514267	     -0.27951452	    -11.22527380	      8.07181360	     -8.03330058	     15.61547369	     -5.78330894	      0.27254143	     15.92368326	     13.07846101	     -7.50000710	     -0.47258686	     -5.66223832	    -11.95492465	     68.44396205	     -6.46864559	      1.19457249	      7.68311488	    -15.45592452	     -7.50000710	    -27.80755852	      0.17124339	     -0.78212000	     -1.35637393	     -1.95918135	    -20.32404004	     45.33493956	     90.00000001	      0.00000000	      0.00000000	      1.27785192	     -5.41414481	     -8.16447037	     45.87624871	     90.00000001	      0.00000000	      0.00000000
      2.99000000	     14.40638617	     -1.92722598	      1.88448999	      1.77967403	      0.88560112	     -0.27994460	    -12.42336909	      7.69289249	     -8.30881557	     14.72838419	     -5.70188272	      0.25705880	     16.08142884	     13.57848199	     -7.50000695	      1.07899823	     -5.23785867	    -11.84920249	     67.86767137	     -6.45662242	      1.18451432	      8.75430616	    -15.61472625	     -7.50000695	    -27.80213474	     -0.14289859	     -0.69372146	     -1.03535990	     -1.95413602	    -20.12434679	     46.03884421	     90.00000001	      0.00000000	      0.00000000	      1.03031589	     -5.48729166	     -8.29637354	     45.67785506	     90.00000001	      0.00000000	      0.00000000
      3.00000000	     14.51025605	     -1.65655842	      1.84393539	      1.79028309	      0.88598488	     -0.28044648	    -13.76834467	      7.32120593	     -8.57664739	     13.74306061	     -5.52966732	      0.23986166	     16.08519028	     14.81011161	     -7.50000675	      2.38284146	     -4.86504096	    -11.51342805	     66.94666427	     -6.08268653	      1.16843971	      9.81189967	    -15.80969883	     -7.50000675	    -27.90702526	     -0.39204454	     -0.48933138	     -1.04392163	     -2.02115551	    -19.80769118	     47.43942728	     90.00000001	      0.00000000	      0.00000000	      0.85646983	     -5.43600801	     -8.61962888	     45.26532728	     90.00000001	      0.00000000	      0.00000000
      3.01000000	     14.49237714	     -1.37041147	      1.88454136	      1.80084962	      0.88598201	     -0.28109877	    -14.61944414	      6.78249288	    -10.78156107	     13.28546957	     -5.44973043	      0.23187519	     16.67727511	     18.76133459	     -7.50000580	      3.81142238	     -4.42337746	    -11.17057728	     65.78845846	     -5.77624202	      1.14822521	     10.44579337	    -15.90346155	     -7.50000580	    -27.87577362	     -0.61425463	     -0.33097745	     -1.43891071	     -2.39347488	    -18.35079651	     49.40802710	     90.00000001	      0.00000000	      0.00000000	      0.85961961	     -5.14597839	     -9.89204255	     44.58371038	     90.00000001	      0.00000000	      0.00000000
      3.02000000	     14.50525191	     -1.15267223	      1.97269005	      1.81137873	      0.88597965	     -0.28176363	    -15.81917585	      6.48851431	    -11.22984700	     12.40348422	     -5.24473108	      0.21648164	     16.66035494	     19.12552180	     -7.50000568	      5.13075355	     -4.04812407	    -10.97686905	     64.30015933	     -5.58498032	      1.12224949	     11.09647037	    -15.87736065	     -7.50000568	    -27.88308905	     -0.75402394	     -0.32593840	     -1.15571551	     -2.38523954	    -18.29181294	     50.15733313	     90.00000001	      0.00000000	      0.00000000	      0.61670733	     -5.23215862	     -9.98251711	     44.35309243	     90.00000001	      0.00000000	      0.00000000
      3.03000000	     14.61502155	     -1.01849278	      2.00938487	      1.82199160	      0.88590178	     -0.28246942	    -17.10924326	      6.21230466	    -11.88873315	     11.50852490	     -4.95120188	      0.20086165	     16.35741463	     21.03027999	     -7.50000538	      6.18988023	     -3.75699640	    -10.59747064	     62.47227737	     -5.09343666	      1.09034693	     11.48786827	    -16.00794547	     -7.50000538	    -27.98326130	     -0.80019963	     -0.09781421	     -1.37276573	     -2.50891312	    -17.99142224	     51.99861319	     90.00000001	      0.00000000	      0.00000000	      0.55344954	     -5.12103262	    -10.46887919	     43.69993322	     90.00000001	      0.00000000	      0.00000000
      3.04000000	     14.68743723	     -0.82911140	      2.11196692	      1.83257141	      0.88567713	     -0.28322072	    -18.32313291	      5.90728737	    -12.53980568	     10.75077999	     -4.67468858	      0.18763651	     16.40154030	     21.57018692	     -7.50000526	      7.21906447	     -3.38090862	    -10.49682381	     60.33375173	     -4.85618695	      1.05302262	     11.88470135	    -15.85504376	     -7.50000526	    -28.05361418	     -0.89391479	     -0.14139629	     -1.09843244	     -2.52901657	    -17.80619734	     52.70460287	     90.00000001	      0.00000000	      0.00000000	      0.32308639	     -5.19121463	    -10.64864235	     43.41820630	     90.00000001	      0.00000000	      0.00000000
      3.05000000	     14.78190143	     -0.75961824	      2.14919234	      1.84319677	      0.88529543	     -0.28400637	    -19.40140621	      5.59017805	    -13.93930274	     10.22742401	     -4.31315512	      0.17850222	     16.16931643	     24.61765748	     -7.50000485	      8.09054548	     -3.15736917	    -10.40671032	     57.91294653	     -4.45233597	      1.01077160	     11.90243285	    -15.85032768	     -7.50000485	    -28.14660531	     -0.85956354	      0.03194644	     -1.38526870	     -2.78242731	    -17.06292340	     54.54675810	     90.00000001	      0.00000000	      0.00000000	      0.32337503	     -4.96061579	    -11.58056691	     42.61229530	     90.00000001	      0.00000000	      0.00000000
      3.06000000	     14.91536604	     -0.63745914	      2.20968254	      1.85384862	      0.88494327	     -0.28479951	    -20.63926551	      5.28758900	    -14.45992761	      9.61686360	     -3.89997774	      0.16784593	     16.15711208	     25.31579862	     -7.50000471	      8.77035936	     -2.86034244	    -10.44572443	     55.12939163	     -4.09669572	      0.96218940	     12.07089321	    -15.48244718	     -7.50000471	    -28.28040494	     -0.89202754	      0.01881608	     -1.09355855	     -2.84560924	    -16.89363561	     55.10037549	     90.00000001	      0.00000000	      0.00000000	      0.05470133	     -4.99902753	    -11.78102936	     42.36842442	     90.00000001	      0.00000000	      0.00000000
